<svg width="588" height="86" viewBox="0 0 588 86" fill="none" xmlns="http://www.w3.org/2000/svg">
<path d="M27.7513 39.48C24.8979 39.48 22.3113 38.8667 19.9913 37.64C17.6979 36.3867 15.8846 34.6667 14.5513 32.48C13.2446 30.2667 12.5913 27.7733 12.5913 25C12.5913 22.2267 13.2446 19.7467 14.5513 17.56C15.8846 15.3467 17.6979 13.6267 19.9913 12.4C22.3113 11.1467 24.9113 10.52 27.7913 10.52C30.2179 10.52 32.4046 10.9467 34.3513 11.8C36.3246 12.6533 37.9779 13.88 39.3113 15.48L35.1513 19.32C33.2579 17.1333 30.9113 16.04 28.1113 16.04C26.3779 16.04 24.8313 16.4267 23.4713 17.2C22.1113 17.9467 21.0446 19 20.2713 20.36C19.5246 21.72 19.1513 23.2667 19.1513 25C19.1513 26.7333 19.5246 28.28 20.2713 29.64C21.0446 31 22.1113 32.0667 23.4713 32.84C24.8313 33.5867 26.3779 33.96 28.1113 33.96C30.9113 33.96 33.2579 32.8533 35.1513 30.64L39.3113 34.48C37.9779 36.1067 36.3246 37.3467 34.3513 38.2C32.3779 39.0533 30.1779 39.48 27.7513 39.48ZM85.5803 33H72.5803L70.1003 39H63.4603L75.9403 11H82.3403L94.8603 39H88.0603L85.5803 33ZM83.5403 28.08L79.1003 17.36L74.6603 28.08H83.5403ZM139.605 39L134.205 31.2H133.885H128.245V39H121.765V11H133.885C136.365 11 138.512 11.4133 140.325 12.24C142.165 13.0667 143.579 14.24 144.565 15.76C145.552 17.28 146.045 19.08 146.045 21.16C146.045 23.24 145.539 25.04 144.525 26.56C143.539 28.0533 142.125 29.2 140.285 30L146.565 39H139.605ZM139.485 21.16C139.485 19.5867 138.979 18.3867 137.965 17.56C136.952 16.7067 135.472 16.28 133.525 16.28H128.245V26.04H133.525C135.472 26.04 136.952 25.6133 137.965 24.76C138.979 23.9067 139.485 22.7067 139.485 21.16ZM196.859 33.8V39H175.179V11H196.339V16.2H181.619V22.28H194.619V27.32H181.619V33.8H196.859ZM247.695 33.8V39H226.015V11H247.175V16.2H232.455V22.28H245.455V27.32H232.455V33.8H247.695ZM294.691 39L289.291 31.2H288.971H283.331V39H276.851V11H288.971C291.451 11 293.598 11.4133 295.411 12.24C297.251 13.0667 298.665 14.24 299.651 15.76C300.638 17.28 301.131 19.08 301.131 21.16C301.131 23.24 300.625 25.04 299.611 26.56C298.625 28.0533 297.211 29.2 295.371 30L301.651 39H294.691ZM294.571 21.16C294.571 19.5867 294.065 18.3867 293.051 17.56C292.038 16.7067 290.558 16.28 288.611 16.28H283.331V26.04H288.611C290.558 26.04 292.038 25.6133 293.051 24.76C294.065 23.9067 294.571 22.7067 294.571 21.16ZM350.825 24.44C352.425 24.9467 353.679 25.8 354.585 27C355.492 28.1733 355.945 29.6267 355.945 31.36C355.945 33.8133 354.985 35.7067 353.065 37.04C351.172 38.3467 348.399 39 344.745 39H330.265V11H343.945C347.359 11 349.972 11.6533 351.785 12.96C353.625 14.2667 354.545 16.04 354.545 18.28C354.545 19.64 354.212 20.8533 353.545 21.92C352.905 22.9867 351.999 23.8267 350.825 24.44ZM336.705 15.88V22.48H343.145C344.745 22.48 345.959 22.2 346.785 21.64C347.612 21.08 348.025 20.2533 348.025 19.16C348.025 18.0667 347.612 17.2533 346.785 16.72C345.959 16.16 344.745 15.88 343.145 15.88H336.705ZM344.265 34.12C345.972 34.12 347.252 33.84 348.105 33.28C348.985 32.72 349.425 31.8533 349.425 30.68C349.425 28.36 347.705 27.2 344.265 27.2H336.705V34.12H344.265ZM397.291 39.48C393.291 39.48 390.171 38.3733 387.931 36.16C385.718 33.9467 384.611 30.7867 384.611 26.68V11H391.091V26.44C391.091 31.4533 393.171 33.96 397.331 33.96C399.358 33.96 400.905 33.36 401.971 32.16C403.038 30.9333 403.571 29.0267 403.571 26.44V11H409.971V26.68C409.971 30.7867 408.851 33.9467 406.611 36.16C404.398 38.3733 401.291 39.48 397.291 39.48ZM440.375 11H453.095C456.135 11 458.815 11.5867 461.135 12.76C463.481 13.9067 465.295 15.5333 466.575 17.64C467.881 19.7467 468.535 22.2 468.535 25C468.535 27.8 467.881 30.2533 466.575 32.36C465.295 34.4667 463.481 36.1067 461.135 37.28C458.815 38.4267 456.135 39 453.095 39H440.375V11ZM452.775 33.68C455.575 33.68 457.801 32.9067 459.455 31.36C461.135 29.7867 461.975 27.6667 461.975 25C461.975 22.3333 461.135 20.2267 459.455 18.68C457.801 17.1067 455.575 16.32 452.775 16.32H446.855V33.68H452.775ZM497.422 11H510.142C513.182 11 515.862 11.5867 518.182 12.76C520.528 13.9067 522.342 15.5333 523.622 17.64C524.928 19.7467 525.582 22.2 525.582 25C525.582 27.8 524.928 30.2533 523.622 32.36C522.342 34.4667 520.528 36.1067 518.182 37.28C515.862 38.4267 513.182 39 510.142 39H497.422V11ZM509.822 33.68C512.622 33.68 514.848 32.9067 516.502 31.36C518.182 29.7867 519.022 27.6667 519.022 25C519.022 22.3333 518.182 20.2267 516.502 18.68C514.848 17.1067 512.622 16.32 509.822 16.32H503.902V33.68H509.822ZM566.698 29.08V39H560.217V29L549.377 11H556.258L563.738 23.44L571.218 11H577.578L566.698 29.08Z" fill="black"/>
<path d="M29.875 80.2C28.825 80.2 27.85 79.9833 26.95 79.55C26.05 79.1 25.325 78.475 24.775 77.675L26.225 75.975C27.1917 77.3583 28.4083 78.05 29.875 78.05C30.8583 78.05 31.6 77.75 32.1 77.15C32.6167 76.55 32.875 75.6667 32.875 74.5V64.675H26.55V62.5H35.35V74.375C35.35 76.3083 34.8833 77.7667 33.95 78.75C33.0333 79.7167 31.675 80.2 29.875 80.2ZM67.4424 66.75V80H65.1674V78C64.6841 78.6833 64.0424 79.2167 63.2424 79.6C62.459 79.9667 61.6007 80.15 60.6674 80.15C58.9007 80.15 57.509 79.6667 56.4924 78.7C55.4757 77.7167 54.9674 76.275 54.9674 74.375V66.75H57.3674V74.1C57.3674 75.3833 57.6757 76.3583 58.2924 77.025C58.909 77.675 59.7924 78 60.9424 78C62.2091 78 63.2091 77.6167 63.9424 76.85C64.6757 76.0833 65.0424 75 65.0424 73.6V66.75H67.4424ZM90.8113 80.15C89.728 80.15 88.6863 80.0083 87.6863 79.725C86.6863 79.425 85.903 79.05 85.3363 78.6L86.3363 76.7C86.9197 77.1167 87.628 77.45 88.4613 77.7C89.2947 77.95 90.1363 78.075 90.9863 78.075C93.0863 78.075 94.1363 77.475 94.1363 76.275C94.1363 75.875 93.9947 75.5583 93.7113 75.325C93.428 75.0917 93.0697 74.925 92.6363 74.825C92.2197 74.7083 91.6197 74.5833 90.8363 74.45C89.7697 74.2833 88.8947 74.0917 88.2113 73.875C87.5447 73.6583 86.9697 73.2917 86.4863 72.775C86.003 72.2583 85.7613 71.5333 85.7613 70.6C85.7613 69.4 86.2613 68.4417 87.2613 67.725C88.2613 66.9917 89.603 66.625 91.2863 66.625C92.1697 66.625 93.053 66.7333 93.9363 66.95C94.8197 67.1667 95.5447 67.4583 96.1113 67.825L95.0863 69.725C94.003 69.025 92.728 68.675 91.2613 68.675C90.2447 68.675 89.4697 68.8417 88.9363 69.175C88.403 69.5083 88.1363 69.95 88.1363 70.5C88.1363 70.9333 88.2863 71.275 88.5863 71.525C88.8863 71.775 89.253 71.9583 89.6863 72.075C90.1363 72.1917 90.7613 72.325 91.5613 72.475C92.628 72.6583 93.4863 72.8583 94.1363 73.075C94.803 73.275 95.3697 73.625 95.8363 74.125C96.303 74.625 96.5363 75.325 96.5363 76.225C96.5363 77.425 96.0197 78.3833 94.9863 79.1C93.9697 79.8 92.578 80.15 90.8113 80.15ZM121.986 79.225C121.636 79.525 121.202 79.7583 120.686 79.925C120.169 80.075 119.636 80.15 119.086 80.15C117.752 80.15 116.719 79.7917 115.986 79.075C115.252 78.3583 114.886 77.3333 114.886 76V68.725H112.636V66.75H114.886V63.85H117.286V66.75H121.086V68.725H117.286V75.9C117.286 76.6167 117.461 77.1667 117.811 77.55C118.177 77.9333 118.694 78.125 119.361 78.125C120.094 78.125 120.719 77.9167 121.236 77.5L121.986 79.225ZM166.426 66.625C168.26 66.625 169.66 67.075 170.626 67.975C171.61 68.875 172.101 70.2167 172.101 72V80H169.826V78.25C169.426 78.8667 168.851 79.3417 168.101 79.675C167.368 79.9917 166.493 80.15 165.476 80.15C163.993 80.15 162.801 79.7917 161.901 79.075C161.018 78.3583 160.576 77.4167 160.576 76.25C160.576 75.0833 161.001 74.15 161.851 73.45C162.701 72.7333 164.051 72.375 165.901 72.375H169.701V71.9C169.701 70.8667 169.401 70.075 168.801 69.525C168.201 68.975 167.318 68.7 166.151 68.7C165.368 68.7 164.601 68.8333 163.851 69.1C163.101 69.35 162.468 69.6917 161.951 70.125L160.951 68.325C161.635 67.775 162.451 67.3583 163.401 67.075C164.351 66.775 165.36 66.625 166.426 66.625ZM165.876 78.3C166.793 78.3 167.585 78.1 168.251 77.7C168.918 77.2833 169.401 76.7 169.701 75.95V74.1H166.001C163.968 74.1 162.951 74.7833 162.951 76.15C162.951 76.8167 163.21 77.3417 163.726 77.725C164.243 78.1083 164.96 78.3 165.876 78.3ZM217.056 80.15C215.973 80.15 214.931 80.0083 213.931 79.725C212.931 79.425 212.148 79.05 211.581 78.6L212.581 76.7C213.165 77.1167 213.873 77.45 214.706 77.7C215.54 77.95 216.381 78.075 217.231 78.075C219.331 78.075 220.381 77.475 220.381 76.275C220.381 75.875 220.24 75.5583 219.956 75.325C219.673 75.0917 219.315 74.925 218.881 74.825C218.465 74.7083 217.865 74.5833 217.081 74.45C216.015 74.2833 215.14 74.0917 214.456 73.875C213.79 73.6583 213.215 73.2917 212.731 72.775C212.248 72.2583 212.006 71.5333 212.006 70.6C212.006 69.4 212.506 68.4417 213.506 67.725C214.506 66.9917 215.848 66.625 217.531 66.625C218.415 66.625 219.298 66.7333 220.181 66.95C221.065 67.1667 221.79 67.4583 222.356 67.825L221.331 69.725C220.248 69.025 218.973 68.675 217.506 68.675C216.49 68.675 215.715 68.8417 215.181 69.175C214.648 69.5083 214.381 69.95 214.381 70.5C214.381 70.9333 214.531 71.275 214.831 71.525C215.131 71.775 215.498 71.9583 215.931 72.075C216.381 72.1917 217.006 72.325 217.806 72.475C218.873 72.6583 219.731 72.8583 220.381 73.075C221.048 73.275 221.615 73.625 222.081 74.125C222.548 74.625 222.781 75.325 222.781 76.225C222.781 77.425 222.265 78.3833 221.231 79.1C220.215 79.8 218.823 80.15 217.056 80.15ZM257.356 66.625C259.023 66.625 260.339 67.1083 261.306 68.075C262.289 69.0417 262.781 70.475 262.781 72.375V80H260.381V72.65C260.381 71.3667 260.081 70.4 259.481 69.75C258.898 69.1 258.056 68.775 256.956 68.775C255.739 68.775 254.773 69.1583 254.056 69.925C253.339 70.675 252.981 71.7583 252.981 73.175V80H250.581V72.65C250.581 71.3667 250.281 70.4 249.681 69.75C249.098 69.1 248.256 68.775 247.156 68.775C245.939 68.775 244.973 69.1583 244.256 69.925C243.539 70.675 243.181 71.7583 243.181 73.175V80H240.781V66.75H243.081V68.725C243.564 68.0417 244.198 67.525 244.981 67.175C245.764 66.8083 246.656 66.625 247.656 66.625C248.689 66.625 249.606 66.8333 250.406 67.25C251.206 67.6667 251.823 68.275 252.256 69.075C252.756 68.3083 253.448 67.7083 254.331 67.275C255.231 66.8417 256.239 66.625 257.356 66.625ZM287.022 66.625C288.855 66.625 290.255 67.075 291.222 67.975C292.205 68.875 292.697 70.2167 292.697 72V80H290.422V78.25C290.022 78.8667 289.447 79.3417 288.697 79.675C287.964 79.9917 287.089 80.15 286.072 80.15C284.589 80.15 283.397 79.7917 282.497 79.075C281.614 78.3583 281.172 77.4167 281.172 76.25C281.172 75.0833 281.597 74.15 282.447 73.45C283.297 72.7333 284.647 72.375 286.497 72.375H290.297V71.9C290.297 70.8667 289.997 70.075 289.397 69.525C288.797 68.975 287.914 68.7 286.747 68.7C285.964 68.7 285.197 68.8333 284.447 69.1C283.697 69.35 283.064 69.6917 282.547 70.125L281.547 68.325C282.23 67.775 283.047 67.3583 283.997 67.075C284.947 66.775 285.955 66.625 287.022 66.625ZM286.472 78.3C287.389 78.3 288.18 78.1 288.847 77.7C289.514 77.2833 289.997 76.7 290.297 75.95V74.1H286.597C284.564 74.1 283.547 74.7833 283.547 76.15C283.547 76.8167 283.805 77.3417 284.322 77.725C284.839 78.1083 285.555 78.3 286.472 78.3ZM312.138 61.45H314.538V80H312.138V61.45ZM334.121 61.45H336.521V80H334.121V61.45ZM382.642 66.625C384.475 66.625 385.875 67.075 386.842 67.975C387.825 68.875 388.317 70.2167 388.317 72V80H386.042V78.25C385.642 78.8667 385.067 79.3417 384.317 79.675C383.584 79.9917 382.709 80.15 381.692 80.15C380.209 80.15 379.017 79.7917 378.117 79.075C377.234 78.3583 376.792 77.4167 376.792 76.25C376.792 75.0833 377.217 74.15 378.067 73.45C378.917 72.7333 380.267 72.375 382.117 72.375H385.917V71.9C385.917 70.8667 385.617 70.075 385.017 69.525C384.417 68.975 383.534 68.7 382.367 68.7C381.584 68.7 380.817 68.8333 380.067 69.1C379.317 69.35 378.684 69.6917 378.167 70.125L377.167 68.325C377.85 67.775 378.667 67.3583 379.617 67.075C380.567 66.775 381.575 66.625 382.642 66.625ZM382.092 78.3C383.009 78.3 383.8 78.1 384.467 77.7C385.134 77.2833 385.617 76.7 385.917 75.95V74.1H382.217C380.184 74.1 379.167 74.7833 379.167 76.15C379.167 76.8167 379.425 77.3417 379.942 77.725C380.459 78.1083 381.175 78.3 382.092 78.3ZM420.332 61.45V80H418.032V77.9C417.498 78.6333 416.823 79.1917 416.007 79.575C415.19 79.9583 414.29 80.15 413.307 80.15C412.023 80.15 410.873 79.8667 409.857 79.3C408.84 78.7333 408.04 77.9417 407.457 76.925C406.89 75.8917 406.607 74.7083 406.607 73.375C406.607 72.0417 406.89 70.8667 407.457 69.85C408.04 68.8333 408.84 68.0417 409.857 67.475C410.873 66.9083 412.023 66.625 413.307 66.625C414.257 66.625 415.132 66.8083 415.932 67.175C416.732 67.525 417.398 68.05 417.932 68.75V61.45H420.332ZM413.507 78.05C414.34 78.05 415.098 77.8583 415.782 77.475C416.465 77.075 416.998 76.525 417.382 75.825C417.765 75.1083 417.957 74.2917 417.957 73.375C417.957 72.4583 417.765 71.65 417.382 70.95C416.998 70.2333 416.465 69.6833 415.782 69.3C415.098 68.9167 414.34 68.725 413.507 68.725C412.657 68.725 411.89 68.9167 411.207 69.3C410.54 69.6833 410.007 70.2333 409.607 70.95C409.223 71.65 409.032 72.4583 409.032 73.375C409.032 74.2917 409.223 75.1083 409.607 75.825C410.007 76.525 410.54 77.075 411.207 77.475C411.89 77.8583 412.657 78.05 413.507 78.05ZM451.598 66.75L445.798 80H443.348L437.548 66.75H440.048L444.598 77.375L449.248 66.75H451.598ZM468.838 66.75H471.238V80H468.838V66.75ZM470.038 64.2C469.571 64.2 469.179 64.05 468.863 63.75C468.563 63.45 468.413 63.0833 468.413 62.65C468.413 62.2167 468.563 61.85 468.863 61.55C469.179 61.2333 469.571 61.075 470.038 61.075C470.504 61.075 470.888 61.225 471.188 61.525C471.504 61.8083 471.663 62.1667 471.663 62.6C471.663 63.05 471.504 63.4333 471.188 63.75C470.888 64.05 470.504 64.2 470.038 64.2ZM496.595 80.15C495.245 80.15 494.037 79.8583 492.97 79.275C491.92 78.6917 491.095 77.8917 490.495 76.875C489.895 75.8417 489.595 74.675 489.595 73.375C489.595 72.075 489.895 70.9167 490.495 69.9C491.095 68.8667 491.92 68.0667 492.97 67.5C494.037 66.9167 495.245 66.625 496.595 66.625C497.795 66.625 498.862 66.8667 499.795 67.35C500.745 67.8333 501.478 68.5333 501.995 69.45L500.17 70.625C499.753 69.9917 499.237 69.5167 498.62 69.2C498.003 68.8833 497.32 68.725 496.57 68.725C495.703 68.725 494.92 68.9167 494.22 69.3C493.537 69.6833 492.995 70.2333 492.595 70.95C492.212 71.65 492.02 72.4583 492.02 73.375C492.02 74.3083 492.212 75.1333 492.595 75.85C492.995 76.55 493.537 77.0917 494.22 77.475C494.92 77.8583 495.703 78.05 496.57 78.05C497.32 78.05 498.003 77.8917 498.62 77.575C499.237 77.2583 499.753 76.7833 500.17 76.15L501.995 77.3C501.478 78.2167 500.745 78.925 499.795 79.425C498.862 79.9083 497.795 80.15 496.595 80.15ZM531.882 73.45C531.882 73.6333 531.865 73.875 531.832 74.175H521.082C521.232 75.3417 521.74 76.2833 522.607 77C523.49 77.7 524.582 78.05 525.882 78.05C527.465 78.05 528.74 77.5167 529.707 76.45L531.032 78C530.432 78.7 529.682 79.2333 528.782 79.6C527.899 79.9667 526.907 80.15 525.807 80.15C524.407 80.15 523.165 79.8667 522.082 79.3C520.999 78.7167 520.157 77.9083 519.557 76.875C518.974 75.8417 518.682 74.675 518.682 73.375C518.682 72.0917 518.965 70.9333 519.532 69.9C520.115 68.8667 520.907 68.0667 521.907 67.5C522.924 66.9167 524.065 66.625 525.332 66.625C526.599 66.625 527.724 66.9167 528.707 67.5C529.707 68.0667 530.482 68.8667 531.032 69.9C531.599 70.9333 531.882 72.1167 531.882 73.45ZM525.332 68.65C524.182 68.65 523.215 69 522.432 69.7C521.665 70.4 521.215 71.3167 521.082 72.45H529.582C529.449 71.3333 528.99 70.425 528.207 69.725C527.44 69.0083 526.482 68.65 525.332 68.65Z" fill="black"/>
</svg>
